# xmcd CD database file
#
# Track frame offsets:
#	150
#	19223
#	49469
#	113998
#	139170
#	162236
#	189350
#
# Disc length: 3145 seconds
#
# Revision: 0
# Processed by: cddbd v1.5.2PL0 Copyright (c) Steve Scherf et al.
# Submitted via: CDex 1.70beta3
#
DISCID=5f0c4707
DTITLE=Christian Schwindt Quintet - For Friends And Relatives
DYEAR=1965
DGENRE=Jazz
TTITLE0=Helsinki At Noon
TTITLE1=Miniature
TTITLE2=My Next And Only Love
TTITLE3=D-Day
TTITLE4=There For Christer
TTITLE5=Claudine
TTITLE6=Släkt Och Vänner (Friends And Relatives)
EXTD=YEAR: 1965
EXTT0=
EXTT1=
EXTT2=
EXTT3=
EXTT4=
EXTT5=
EXTT6=
PLAYORDER=
